<svg width="449" height="187" viewBox="0 0 449 187" fill="none" xmlns="http://www.w3.org/2000/svg">
<rect width="449" height="187" fill="white"/>
<rect x="161.619" y="127.717" width="30.581" height="40.7747" fill="#99A6FF"/>
<path fill-rule="evenodd" clip-rule="evenodd" d="M192.2 135.594C185.29 135.594 179.689 141.195 179.689 148.104C179.689 155.014 185.29 160.615 192.2 160.615C199.109 160.615 204.71 155.014 204.71 148.104C204.71 141.195 199.109 135.594 192.2 135.594ZM177.527 148.104C177.527 140.001 184.096 133.432 192.2 133.432C200.303 133.432 206.872 140.001 206.872 148.104C206.872 156.208 200.303 162.777 192.2 162.777C184.096 162.777 177.527 156.208 177.527 148.104Z" fill="#99A6FF"/>
<path d="M24.6721 153.001H186.072C186.072 161.446 179.226 168.292 170.781 168.292H39.9626C31.5179 168.292 24.6721 161.446 24.6721 153.001Z" fill="#F6FBFF"/>
<path d="M26.3708 161.496H182.674C181.675 165.49 178.087 168.292 173.97 168.292H38.6321C33.6468 168.292 29.0131 165.724 26.3708 161.496Z" fill="#C1DDFF"/>
<path d="M39.9625 49.3658H172.48V153.001H39.9625V49.3658Z" fill="#DDECFF"/>
<path d="M39.1131 144.507V48.5163H60.3499M149.545 48.5163H173.33V150.453M33.1668 167.442C30.3353 166.31 24.6721 161.666 24.6721 152.152C32.1475 152.152 62.332 152.152 76.4899 152.152M88.3825 152.152H186.921C186.072 157.249 182.504 167.442 175.029 167.442" stroke="#445BFD" stroke-width="2.16197" stroke-linecap="round"/>
<line x1="9.19995" y1="168.708" x2="430.784" y2="168.708" stroke="#445BFD" stroke-width="2.11634"/>
<rect x="46.7583" y="59.5594" width="120.625" height="84.9472" fill="white"/>
<rect x="211.556" y="81.639" width="9.55154" height="9.55154" fill="#D1D7FF"/>
<rect x="211.556" y="103.13" width="9.55154" height="9.55154" fill="#D1D7FF"/>
<rect x="237.288" y="81.774" width="9.55154" height="9.55154" fill="#8897FF"/>
<rect x="237.288" y="103.265" width="9.55154" height="9.55154" fill="#8897FF"/>
<rect x="262.528" y="81.774" width="9.55154" height="9.55154" fill="#445BFD"/>
<rect x="262.528" y="103.265" width="9.55154" height="9.55154" fill="#445BFD"/>
<path fill-rule="evenodd" clip-rule="evenodd" d="M14.6049 61.9935C14.6049 58.0533 17.7991 54.859 21.7394 54.859C25.6796 54.859 28.8739 58.0533 28.8739 61.9935C28.8739 65.9338 25.6796 69.128 21.7394 69.128C17.7991 69.128 14.6049 65.9338 14.6049 61.9935ZM21.7394 57.4534C19.2319 57.4534 17.1992 59.4861 17.1992 61.9935C17.1992 64.501 19.2319 66.5337 21.7394 66.5337C24.2468 66.5337 26.2795 64.501 26.2795 61.9935C26.2795 59.4861 24.2468 57.4534 21.7394 57.4534Z" fill="#C1DDFF"/>
<path fill-rule="evenodd" clip-rule="evenodd" d="M189.076 63.2905C192.3 63.2905 194.913 60.6771 194.913 57.4532C194.913 54.2293 192.3 51.6159 189.076 51.6159C185.852 51.6159 183.238 54.2293 183.238 57.4532C183.238 60.6771 185.852 63.2905 189.076 63.2905Z" stroke="#435BFD" stroke-width="2.59436"/>
<path fill-rule="evenodd" clip-rule="evenodd" d="M37.3055 41.8869C38.3801 41.8869 39.2513 41.0158 39.2513 39.9411C39.2513 38.8665 38.3801 37.9954 37.3055 37.9954C36.2309 37.9954 35.3597 38.8665 35.3597 39.9411C35.3597 41.0158 36.2309 41.8869 37.3055 41.8869Z" fill="#435BFD"/>
<path fill-rule="evenodd" clip-rule="evenodd" d="M199.453 38.644C200.528 38.644 201.399 37.7728 201.399 36.6982C201.399 35.6236 200.528 34.7524 199.453 34.7524C198.379 34.7524 197.508 35.6236 197.508 36.6982C197.508 37.7728 198.379 38.644 199.453 38.644Z" fill="#C1DDFF"/>
<path fill-rule="evenodd" clip-rule="evenodd" d="M27.1444 142.635C28.219 142.635 29.0902 141.764 29.0902 140.689C29.0902 139.614 28.219 138.743 27.1444 138.743C26.0698 138.743 25.1986 139.614 25.1986 140.689C25.1986 141.764 26.0698 142.635 27.1444 142.635Z" fill="#435BFD"/>
<path fill-rule="evenodd" clip-rule="evenodd" d="M28.8738 32.8607H19.1449V30.4285L28.8738 30.4285V32.8607Z" fill="#435BFD"/>
<path fill-rule="evenodd" clip-rule="evenodd" d="M23.1986 36.9144L23.1986 27.1855L25.6309 27.1855L25.6309 36.9144L23.1986 36.9144Z" fill="#435BFD"/>
<path fill-rule="evenodd" clip-rule="evenodd" d="M201.345 123.663V127.717H203.777V123.663H207.02V121.231H203.777V117.988L201.345 117.988V121.231H197.291V123.663H201.345Z" fill="#435BFD"/>
<path d="M67.5731 123.393H145.404V73.1273V40.0759L125.198 22.8616H110.792H96.3855H81.9793H67.5731V123.393Z" fill="white" stroke="#445BFD" stroke-width="2.08545"/>
<path d="M68.2415 116.269H144.252V122.412H68.2411L68.2415 116.269Z" fill="#C1DDFF"/>
<line x1="101.915" y1="51.0054" x2="133.612" y2="51.0054" stroke="#9BC8FF" stroke-width="2.08545" stroke-linecap="round"/>
<line x1="77.3453" y1="97.5673" x2="99.8292" y2="97.5673" stroke="#9BC8FF" stroke-width="2.08545" stroke-linecap="round"/>
<path d="M77.8383 86.3254H99.3364" stroke="#9BC8FF" stroke-width="2.08545" stroke-linecap="round"/>
<path d="M76.3026 64.8272H134.655" stroke="#445BFD" stroke-width="2.08545" stroke-linecap="round"/>
<path d="M76.3026 74.0407H134.655" stroke="#445BFD" stroke-width="2.08545" stroke-linecap="round"/>
<path d="M125.082 22.9856L125.082 40.1573L144.863 40.1574" stroke="#445BFD" stroke-width="2.08545"/>
<path d="M88.8281 35.5869L89.5501 53.1731C89.7057 56.9632 86.6649 60.1156 82.8716 60.0966V60.0966C79.1986 60.0783 76.2359 57.0857 76.2542 53.4127L76.4193 20.431C76.4395 16.4003 79.7234 13.1491 83.7541 13.1692V13.1692C87.3804 13.1874 90.4433 15.8652 90.9457 19.4566L91.337 22.2545" stroke="#445BFD" stroke-width="2.08545" stroke-linecap="round"/>
<path d="M134.246 89.531L130.097 101.183H126.141L123.948 94.8411L121.67 101.183H117.714L113.565 89.531H117.434L119.821 96.5824L122.293 89.531H125.776L128.183 96.6469L130.656 89.531H134.246Z" fill="#445BFD"/>
<rect x="108.55" y="83.2542" width="29.1761" height="24.5693" stroke="#445BFD" stroke-width="2.08545"/>
<rect x="61.0872" y="128.798" width="89.7217" height="8.64787" rx="4.32394" fill="#E0F1FF"/>
<rect x="61.0872" y="128.798" width="49.7253" height="8.64787" rx="4.32394" fill="#435BFD"/>
<path d="M317.124 167.888H397.636V111.375V74.2151L376.734 54.8613H361.832H346.929H332.027H317.124V167.888Z" fill="white" stroke="#445BFD" stroke-width="2.16197"/>
<path d="M316.266 66.8008L299.112 68.3927L316.623 142.417" stroke="#445BFD" stroke-width="2.16197" stroke-linecap="round"/>
<path d="M398.371 89.458L410.245 90.9636L398.014 165.074" stroke="#445BFD" stroke-width="2.16197" stroke-linecap="round"/>
<path d="M317.817 160.724H396.617V167.092H317.817L317.817 160.724Z" fill="#C1DDFF"/>
<line x1="328.09" y1="146.094" x2="350.791" y2="146.094" stroke="#9BC8FF" stroke-width="2.16197" stroke-linecap="round"/>
<path d="M328.09 134.203H350.791" stroke="#9BC8FF" stroke-width="2.16197" stroke-linecap="round"/>
<path d="M327.009 111.502H386.464" stroke="#445BFD" stroke-width="2.16197" stroke-linecap="round"/>
<path d="M327.009 121.231H386.464" stroke="#445BFD" stroke-width="2.16197" stroke-linecap="round"/>
<path d="M367.647 135.447C368.605 135.447 369.437 135.609 370.144 135.932C370.85 136.244 371.395 136.698 371.778 137.294C372.161 137.879 372.353 138.57 372.353 139.367C372.353 140.164 372.161 140.855 371.778 141.44C371.395 142.026 370.85 142.48 370.144 142.802C369.437 143.115 368.605 143.272 367.647 143.272H365.8V146.041H362.804V135.447H367.647ZM367.465 140.911C368.08 140.911 368.545 140.78 368.857 140.517C369.17 140.245 369.326 139.861 369.326 139.367C369.326 138.873 369.17 138.489 368.857 138.217C368.545 137.944 368.08 137.808 367.465 137.808H365.8V140.911H367.465ZM373.814 135.447H378.823C379.984 135.447 381.013 135.664 381.911 136.098C382.809 136.532 383.505 137.147 383.999 137.944C384.494 138.741 384.741 139.675 384.741 140.744C384.741 141.814 384.494 142.747 383.999 143.544C383.505 144.341 382.809 144.956 381.911 145.39C381.013 145.824 379.984 146.041 378.823 146.041H373.814V135.447ZM378.702 143.65C379.61 143.65 380.337 143.393 380.882 142.878C381.437 142.364 381.714 141.652 381.714 140.744C381.714 139.836 381.437 139.125 380.882 138.61C380.337 138.096 379.61 137.839 378.702 137.839H376.811V143.65H378.702ZM389.314 137.763V140.093H393.99V142.409H389.314V146.041H386.317V135.447H394.626V137.763H389.314Z" fill="#445BFD"/>
<rect x="357.277" y="128.798" width="39.9964" height="24.8626" stroke="#445BFD" stroke-width="2.16197"/>
<path fill-rule="evenodd" clip-rule="evenodd" d="M405.921 68.4243C405.921 64.484 409.115 61.2898 413.056 61.2898C416.996 61.2898 420.19 64.484 420.19 68.4243C420.19 72.3645 416.996 75.5588 413.056 75.5588C409.115 75.5588 405.921 72.3645 405.921 68.4243ZM413.056 63.8841C410.548 63.8841 408.516 65.9168 408.516 68.4243C408.516 70.9317 410.548 72.9644 413.056 72.9644C415.563 72.9644 417.596 70.9317 417.596 68.4243C417.596 65.9168 415.563 63.8841 413.056 63.8841Z" fill="#9BC8FF"/>
<path fill-rule="evenodd" clip-rule="evenodd" d="M302.147 133.771C303.221 133.771 304.092 132.899 304.092 131.825C304.092 130.75 303.221 129.879 302.147 129.879C301.072 129.879 300.201 130.75 300.201 131.825C300.201 132.899 301.072 133.771 302.147 133.771Z" fill="#435BFD"/>
<path fill-rule="evenodd" clip-rule="evenodd" d="M314.578 42.3193C315.474 42.3193 316.199 41.5933 316.199 40.6978C316.199 39.8023 315.474 39.0764 314.578 39.0764C313.683 39.0764 312.957 39.8023 312.957 40.6978C312.957 41.5933 313.683 42.3193 314.578 42.3193Z" fill="#435BFD"/>
<path fill-rule="evenodd" clip-rule="evenodd" d="M423.433 49.6151C424.508 49.6151 425.379 48.7439 425.379 47.6693C425.379 46.5947 424.508 45.7235 423.433 45.7235C422.359 45.7235 421.488 46.5947 421.488 47.6693C421.488 48.7439 422.359 49.6151 423.433 49.6151Z" fill="#435BFD"/>
<path fill-rule="evenodd" clip-rule="evenodd" d="M301.066 153.931H291.337V151.499H301.066V153.931Z" fill="#9BC8FF"/>
<path fill-rule="evenodd" clip-rule="evenodd" d="M295.391 157.985L295.391 148.256L297.823 148.256L297.823 157.985L295.391 157.985Z" fill="#9BC8FF"/>
<path fill-rule="evenodd" clip-rule="evenodd" d="M425.325 134.634V138.688H427.757V134.634H431V132.202H427.757V128.959L425.325 128.959V132.202H421.271V134.634H425.325Z" fill="#435BFD"/>
<rect x="327.009" y="67.1819" width="38.9154" height="33.5105" fill="white" stroke="#445BFD" stroke-width="2.16197"/>
<path d="M376.156 54.4973L376.156 75.2893L397.814 75.2893" stroke="#445BFD" stroke-width="2.16197"/>
<path d="M327.009 93.4004L336.618 84.5835C337.033 84.2028 337.671 84.2043 338.084 84.5868L353.14 98.5305M346.063 89.8093L352.417 84.0517C352.828 83.6796 353.453 83.6783 353.865 84.0487L364.844 93.9134" stroke="#445BFD" stroke-width="2.16197"/>
<circle cx="356.196" cy="74.7488" r="4.32394" fill="#C1DDFF"/>
</svg>
